# xmcd
#
# Track frame offsets: 
#        150
#        8563
#        29229
#        49776
#        68803
#        92450
#        111467
#        128903
#        146137
#        160393
#        183576
#        202313
#        211885
#        231982
#
# Disc length: 3362 seconds
#
# Revision: 0
# Processed by: cddbd v1.5.2PL0 Copyright (c) Steve Scherf et al.
# Submitted via: ExactAudioCopy v0.95a5
#
DISCID=d50d200e
DTITLE=Alicia Keys - As I Am
DYEAR=2007
DGENRE=blues
TTITLE0=As I Am (Intro)
TTITLE1=Go Ahead
TTITLE2=Superwoman
TTITLE3=No One (Main)
TTITLE4=Like You'll Never See Me Again (Main)
TTITLE5=Lesson Learned
TTITLE6=Wreckless Love
TTITLE7=The Thing About Love
TTITLE8=Teenage Love Affair
TTITLE9=I Need You
TTITLE10=Where Do We Go From Here
TTITLE11=Prelude To A Kiss
TTITLE12=Tell You Something (Nana's Reprise)
TTITLE13=Sure Looks Good To Me
EXTD=
EXTT0=
EXTT1=
EXTT2=
EXTT3=
EXTT4=
EXTT5=
EXTT6=
EXTT7=
EXTT8=
EXTT9=
EXTT10=
EXTT11=
EXTT12=
EXTT13=
PLAYORDER=
